HIERARCHY
ROOT Bone
{
	OFFSET 0.000000 0.000000 0.000000
	CHANNELS 6 Xposition Yposition Zposition Xrotation Yrotation Zrotation
	JOINT Bone.001
	{
		OFFSET 0.002685 0.000000 0.400000
		CHANNELS 3 Xrotation Yrotation Zrotation
		End Site
		{
			OFFSET -0.008054 0.000000 0.400000
		}
	}
}
MOTION
Frames: 120
Frame Time: 0.041667
0.000000 0.000000 0.000000 0.000000 0.384530 0.000000 0.000000 -1.537980 0.000000 
0.000000 0.000000 0.000000 0.000000 0.384530 0.000000 0.000000 -1.537980 0.000000 
0.000000 0.000000 0.000000 0.000000 0.774220 0.000000 0.000000 -1.927671 0.000000 
0.000000 0.000000 0.000000 0.000000 0.769025 0.000000 0.000000 -1.922475 0.000000 
0.000000 0.000000 0.000000 0.000000 0.769025 0.000000 0.000000 -1.914788 0.000000 
0.000000 0.000000 0.000000 0.000000 0.763898 0.000000 0.000000 -1.902075 0.000000 
0.000000 0.000000 0.000000 0.000000 0.758840 0.000000 0.000000 -1.897017 0.000000 
0.000000 0.000000 0.000000 0.000000 1.130691 0.000000 0.000000 -2.253994 0.000000 
0.000000 0.000000 0.000000 0.000000 1.138177 0.000000 0.000000 -2.268868 0.000000 
0.000000 0.000000 0.000000 0.000000 1.537772 0.000000 0.000000 -3.065298 0.000000 
0.000000 0.000000 0.000000 0.000000 1.507436 0.000000 0.000000 -2.638127 0.000000 
0.000000 0.000000 0.000000 0.000000 1.896518 0.000000 0.000000 -3.034695 0.000000 
0.000000 0.000000 0.000000 0.000000 2.260502 0.000000 0.000000 -3.009424 0.000000 
0.000000 0.000000 0.000000 0.000000 2.260502 0.000000 0.000000 -3.009424 0.000000 
0.000000 0.000000 0.000000 0.000000 2.973731 0.000000 0.000000 -3.345776 0.000000 
0.000000 0.000000 0.000000 0.000000 3.323120 0.000000 0.000000 -3.323120 0.000000 
0.000000 0.000000 0.000000 0.000000 3.715289 0.000000 0.000000 -3.715289 0.000000 
0.000000 0.000000 0.000000 0.000000 4.085617 0.000000 0.000000 -4.085617 0.000000 
0.000000 0.000000 0.000000 0.000000 4.059346 0.000000 0.000000 -4.059346 0.000000 
0.000000 0.000000 0.000000 0.000000 4.085617 0.000000 0.000000 -3.713571 0.000000 
0.000000 0.000000 0.000000 0.000000 4.112229 0.000000 0.000000 -3.740184 0.000000 
0.000000 0.000000 0.000000 0.000000 4.112229 0.000000 0.000000 -3.740184 0.000000 
0.000000 0.000000 0.000000 0.000000 4.398705 0.000000 0.000000 -3.664184 0.000000 
0.000000 0.000000 0.000000 0.000000 4.455603 0.000000 0.000000 -4.083558 0.000000 
0.000000 0.000000 0.000000 0.000000 4.794232 0.000000 0.000000 -4.424587 0.000000 
0.000000 0.000000 0.000000 0.000000 4.794232 0.000000 0.000000 -4.424587 0.000000 
0.000000 0.000000 0.000000 0.000000 5.492325 0.000000 0.000000 -4.757804 0.000000 
0.000000 0.000000 0.000000 0.000000 5.782392 0.000000 0.000000 -4.694628 0.000000 
0.000000 0.000000 0.000000 0.000000 5.818971 0.000000 0.000000 -4.359522 0.000000 
0.000000 0.000000 0.000000 0.000000 6.219230 0.000000 0.000000 -4.759780 0.000000 
0.000000 0.000000 0.000000 0.000000 6.259036 0.000000 0.000000 -4.411426 0.000000 
0.000000 0.000000 0.000000 0.000000 6.581945 0.000000 0.000000 -4.757855 0.000000 
0.000000 0.000000 0.000000 0.000000 6.540386 0.000000 0.000000 -4.716296 0.000000 
0.000000 0.000000 0.000000 0.000000 6.179924 0.000000 0.000000 -3.991342 0.000000 
0.000000 0.000000 0.000000 0.000000 6.179924 0.000000 0.000000 -4.720475 0.000000 
0.000000 0.000000 0.000000 0.000000 5.492325 0.000000 0.000000 -3.668235 0.000000 
0.000000 0.000000 0.000000 0.000000 5.492325 0.000000 0.000000 -3.668235 0.000000 
0.000000 0.000000 0.000000 0.000000 4.825217 0.000000 0.000000 -3.346944 0.000000 
0.000000 0.000000 0.000000 0.000000 4.059346 0.000000 0.000000 -2.581074 0.000000 
0.000000 0.000000 0.000000 0.000000 2.954580 0.000000 0.000000 -2.215320 0.000000 
0.000000 0.000000 0.000000 0.000000 2.636758 0.000000 0.000000 -2.636758 0.000000 
0.000000 0.000000 0.000000 0.000000 1.871745 0.000000 0.000000 -2.246222 0.000000 
0.000000 0.000000 0.000000 0.000000 1.123303 0.000000 0.000000 -1.497780 0.000000 
0.000000 0.000000 0.000000 0.000000 0.753848 0.000000 0.000000 -1.884539 0.000000 
0.000000 0.000000 0.000000 0.000000 0.739259 0.000000 0.000000 -2.217532 0.000000 
0.000000 0.000000 0.000000 0.000000 0.739259 0.000000 0.000000 -2.217532 0.000000 
0.000000 0.000000 0.000000 0.000000 0.744059 0.000000 0.000000 -2.591669 0.000000 
0.000000 0.000000 0.000000 0.000000 1.116010 0.000000 0.000000 -2.975610 0.000000 
0.000000 0.000000 0.000000 0.000000 1.871745 0.000000 0.000000 -3.731344 0.000000 
0.000000 0.000000 0.000000 0.000000 2.245743 0.000000 0.000000 -3.733610 0.000000 
0.000000 0.000000 0.000000 0.000000 2.585794 0.000000 0.000000 -3.325054 0.000000 
0.000000 0.000000 0.000000 0.000000 2.973731 0.000000 0.000000 -3.345776 0.000000 
0.000000 0.000000 0.000000 0.000000 2.654196 0.000000 0.000000 -3.033632 0.000000 
0.000000 0.000000 0.000000 0.000000 3.388557 0.000000 0.000000 -4.895993 0.000000 
0.000000 0.000000 0.000000 0.000000 3.667788 0.000000 0.000000 -5.856371 0.000000 
0.000000 0.000000 0.000000 0.000000 4.262611 0.000000 0.000000 -6.041411 0.000000 
0.000000 0.000000 0.000000 0.000000 5.355825 0.000000 0.000000 -6.429995 0.000000 
0.000000 0.000000 0.000000 0.000000 5.856014 0.000000 0.000000 -5.491077 0.000000 
0.000000 0.000000 0.000000 0.000000 6.709837 0.000000 0.000000 -6.709837 0.000000 
0.000000 0.000000 0.000000 0.000000 7.815294 0.000000 0.000000 -8.187339 0.000000 
0.000000 0.000000 0.000000 0.000000 8.691308 0.000000 0.000000 -8.326371 0.000000 
0.000000 0.000000 0.000000 0.000000 8.826371 0.000000 0.000000 -5.999246 0.000000 
0.000000 0.000000 0.000000 0.000000 9.344672 0.000000 0.000000 -5.362151 0.000000 
0.000000 0.000000 0.000000 0.000000 9.644406 0.000000 0.000000 -5.929117 0.000000 
0.000000 0.000000 0.000000 0.000000 10.370742 0.000000 0.000000 -7.397010 0.000000 
0.000000 0.000000 0.000000 0.000000 10.366323 0.000000 0.000000 -7.573620 0.000000 
0.000000 0.000000 0.000000 0.000000 10.577970 0.000000 0.000000 -7.151177 0.000000 
0.000000 0.000000 0.000000 0.000000 11.241479 0.000000 0.000000 -7.005084 0.000000 
0.000000 0.000000 0.000000 0.000000 11.381463 0.000000 0.000000 -5.853923 0.000000 
0.000000 0.000000 0.000000 0.000000 10.885527 0.000000 0.000000 -5.427974 0.000000 
0.000000 0.000000 0.000000 0.000000 10.049349 0.000000 0.000000 -4.985732 0.000000 
0.000000 0.000000 0.000000 0.000000 9.286928 0.000000 0.000000 -4.970900 0.000000 
0.000000 0.000000 0.000000 0.000000 8.078345 0.000000 0.000000 -4.044934 0.000000 
0.000000 0.000000 0.000000 0.000000 7.033416 0.000000 0.000000 -3.710296 0.000000 
0.000000 0.000000 0.000000 0.000000 5.194429 0.000000 0.000000 -1.871308 0.000000 
0.000000 0.000000 0.000000 0.000000 3.691386 0.000000 0.000000 -1.122145 0.000000 
0.000000 0.000000 0.000000 0.000000 2.231175 0.000000 0.000000 -0.743307 0.000000 
0.000000 0.000000 0.000000 0.000000 1.487868 0.000000 0.000000 -1.487868 0.000000 
0.000000 0.000000 0.000000 0.000000 1.116010 0.000000 0.000000 -1.855270 0.000000 
0.000000 0.000000 0.000000 0.000000 0.734521 0.000000 0.000000 -1.836227 0.000000 
0.000000 0.000000 0.000000 0.000000 0.734521 0.000000 0.000000 -1.829212 0.000000 
0.000000 0.000000 0.000000 0.000000 1.094691 0.000000 0.000000 -2.182454 0.000000 
0.000000 0.000000 0.000000 0.000000 1.094691 0.000000 0.000000 -2.182454 0.000000 
0.000000 0.000000 0.000000 0.000000 1.108812 0.000000 0.000000 -1.843333 0.000000 
0.000000 0.000000 0.000000 0.000000 1.116010 0.000000 0.000000 -1.855270 0.000000 
0.000000 0.000000 0.000000 0.000000 0.748922 0.000000 0.000000 -1.123399 0.000000 
0.000000 0.000000 0.000000 0.000000 0.000000 0.000000 0.000000 -0.381966 0.000000 
0.000000 0.000000 0.000000 0.000000 -0.381966 0.000000 0.000000 -0.376874 0.000000 
0.000000 0.000000 0.000000 0.000000 -0.381966 0.000000 0.000000 -0.376874 0.000000 
0.000000 0.000000 0.000000 0.000000 -1.537772 0.000000 0.000000 -0.384184 0.000000 
0.000000 0.000000 0.000000 0.000000 -2.385944 0.000000 0.000000 -0.377913 0.000000 
0.000000 0.000000 0.000000 0.000000 -2.802452 0.000000 0.000000 -0.377379 0.000000 
0.000000 0.000000 0.000000 0.000000 -3.247343 0.000000 0.000000 -0.780921 0.000000 
0.000000 0.000000 0.000000 0.000000 -3.247343 0.000000 0.000000 -0.780921 0.000000 
0.000000 0.000000 0.000000 0.000000 -4.524768 0.000000 0.000000 -0.374324 0.000000 
0.000000 0.000000 0.000000 0.000000 -5.381547 0.000000 0.000000 0.856779 0.000000 
0.000000 0.000000 0.000000 0.000000 -6.293948 0.000000 0.000000 1.251497 0.000000 
0.000000 0.000000 0.000000 0.000000 -6.661302 0.000000 0.000000 0.826513 0.000000 
0.000000 0.000000 0.000000 0.000000 -7.230243 0.000000 0.000000 1.309622 0.000000 
0.000000 0.000000 0.000000 0.000000 -8.011232 0.000000 0.000000 1.717283 0.000000 
0.000000 0.000000 0.000000 0.000000 -8.365886 0.000000 0.000000 1.292348 0.000000 
0.000000 0.000000 0.000000 0.000000 -8.777817 0.000000 0.000000 1.652801 0.000000 
0.000000 0.000000 0.000000 0.000000 -8.777817 0.000000 0.000000 1.292778 0.000000 
0.000000 0.000000 0.000000 0.000000 -8.714733 0.000000 0.000000 1.283325 0.000000 
0.000000 0.000000 0.000000 0.000000 -8.591225 0.000000 0.000000 0.807666 0.000000 
0.000000 0.000000 0.000000 0.000000 -8.714733 0.000000 0.000000 1.691939 0.000000 
0.000000 0.000000 0.000000 0.000000 -8.365886 0.000000 0.000000 1.292348 0.000000 
0.000000 0.000000 0.000000 0.000000 -7.895765 0.000000 0.000000 0.822227 0.000000 
0.000000 0.000000 0.000000 0.000000 -7.485039 0.000000 0.000000 0.871578 0.000000 
0.000000 0.000000 0.000000 0.000000 -7.125016 0.000000 0.000000 1.290227 0.000000 
0.000000 0.000000 0.000000 0.000000 -7.125016 0.000000 0.000000 2.119184 0.000000 
0.000000 0.000000 0.000000 0.000000 -7.539445 0.000000 0.000000 3.334088 0.000000 
0.000000 0.000000 0.000000 0.000000 -7.539445 0.000000 0.000000 3.334088 0.000000 
0.000000 0.000000 0.000000 0.000000 -7.594643 0.000000 0.000000 3.358249 0.000000 
0.000000 0.000000 0.000000 0.000000 -7.650651 0.000000 0.000000 3.414256 0.000000 
0.000000 0.000000 0.000000 0.000000 -7.707486 0.000000 0.000000 3.836229 0.000000 
0.000000 0.000000 0.000000 0.000000 -7.765166 0.000000 0.000000 3.893910 0.000000 
0.000000 0.000000 0.000000 0.000000 -7.765166 0.000000 0.000000 3.432852 0.000000 
0.000000 0.000000 0.000000 0.000000 -8.315126 0.000000 0.000000 4.384950 0.000000 
0.000000 0.000000 0.000000 0.000000 -8.252529 0.000000 0.000000 4.352035 0.000000 
